<?xml version="1.0" encoding="UTF-8" standalone="no"?>
<!-- Created with Inkscape (http://www.inkscape.org/) -->

<svg
   width="50mm"
   height="50mm"
   viewBox="0 0 150 150"
   version="1.1"
   id="svg1"
   xml:space="preserve"
   inkscape:version="1.3.2 (091e20e, 2023-11-25, custom)"
   sodipodi:docname="Peace.svg"
   xmlns:inkscape="http://www.inkscape.org/namespaces/inkscape"
   xmlns:sodipodi="http://sodipodi.sourceforge.net/DTD/sodipodi-0.dtd"
   xmlns="http://www.w3.org/2000/svg"
   xmlns:svg="http://www.w3.org/2000/svg"><sodipodi:namedview
     id="namedview1"
     pagecolor="#ffffff"
     bordercolor="#000000"
     borderopacity="0.25"
     inkscape:showpageshadow="2"
     inkscape:pageopacity="0.0"
     inkscape:pagecheckerboard="0"
     inkscape:deskcolor="#d1d1d1"
     inkscape:document-units="mm"
     showguides="true"
     inkscape:zoom="1.0343421"
     inkscape:cx="386.23585"
     inkscape:cy="355.29831"
     inkscape:window-width="1920"
     inkscape:window-height="1017"
     inkscape:window-x="-8"
     inkscape:window-y="-8"
     inkscape:window-maximized="1"
     inkscape:current-layer="layer2"><sodipodi:guide
       position="105.13325,8.0555892"
       orientation="1,0"
       id="guide3"
       inkscape:locked="false" /><sodipodi:guide
       position="77.762795,23.147709"
       orientation="0,-1"
       id="guide4"
       inkscape:locked="false" /></sodipodi:namedview><defs
     id="defs1" /><g
     inkscape:groupmode="layer"
     id="layer2"
     inkscape:label="Lag 2"><path
       id="path1"
       style="fill:#2012ff;fill-opacity:1;stroke:none;stroke-width:0.257901;stroke-opacity:1"
       d="M 74.81991,1.188453 A 74.049837,74.049837 0 0 0 0.76991873,75.238441 74.049837,74.049837 0 0 0 74.81991,149.28793 74.049837,74.049837 0 0 0 148.8694,75.238441 74.049837,74.049837 0 0 0 74.81991,1.188453 Z m 6.85656,14.685279 a 59.768797,59.768797 0 0 1 52.91214,59.364709 59.768797,59.768797 0 0 1 -12.88349,36.850709 L 81.67647,70.193749 Z M 67.962854,16.008727 V 70.328742 L 27.995159,112.16018 A 59.768797,59.768797 0 0 1 15.050716,75.238441 59.768797,59.768797 0 0 1 67.962854,16.008727 Z M 81.67647,91.160841 111.98344,121.85667 A 59.768797,59.768797 0 0 1 81.67647,134.46766 Z M 67.962854,91.291808 V 134.46766 A 59.768797,59.768797 0 0 1 37.725907,121.91611 Z" /></g></svg>
