<?xml version="1.0" encoding="UTF-8" standalone="no"?>
<svg
   id="Layer_1"
   version="1.1"
   viewBox="0 0 200 200"
   sodipodi:docname="Logo-200.svg"
   inkscape:version="1.4.2 (f4327f4, 2025-05-13)"
   width="200"
   height="200"
   xmlns:inkscape="http://www.inkscape.org/namespaces/inkscape"
   xmlns:sodipodi="http://sodipodi.sourceforge.net/DTD/sodipodi-0.dtd"
   xmlns="http://www.w3.org/2000/svg"
   xmlns:svg="http://www.w3.org/2000/svg">
  <sodipodi:namedview
     id="namedview1"
     pagecolor="#ffffff"
     bordercolor="#666666"
     borderopacity="1.0"
     inkscape:showpageshadow="2"
     inkscape:pageopacity="0.0"
     inkscape:pagecheckerboard="0"
     inkscape:deskcolor="#d1d1d1"
     showgrid="false"
     inkscape:zoom="1.7016667"
     inkscape:cx="300"
     inkscape:cy="300"
     inkscape:window-width="2400"
     inkscape:window-height="1271"
     inkscape:window-x="-9"
     inkscape:window-y="-9"
     inkscape:window-maximized="1"
     inkscape:current-layer="Layer_1" />
  <path
     id="ellipse1"
     d="M 100.39577,4.9003906 A 95.495751,95.463419 0 0 0 4.9003906,100.36355 a 95.495751,95.463419 0 0 0 95.4953794,95.4638 95.495751,95.463419 0 0 0 95.496,-95.4638 95.495751,95.463419 0 0 0 -95.496,-95.4631594 z m -0.0644,27.0349064 v 91.841493 h 62.83407 c 0,10.60705 -1.97265,17.0423 -7.11449,23.63936 -4.49505,5.82094 -13.00022,13.5822 -21.79631,13.5822 H 56.286481 V 64.24164 h 0.03221 c 0,-9.18415 2.360841,-18.853504 9.184276,-24.706783 6.823439,-5.853278 13.937669,-7.59956 34.828373,-7.59956 z"
     style="stroke-width:0.323386" />
</svg>
