<?xml version="1.0" encoding="UTF-8" standalone="no"?>
<!-- Created with Inkscape (http://www.inkscape.org/) -->

<svg
   xmlns:dc="http://purl.org/dc/elements/1.1/"
   xmlns:cc="http://creativecommons.org/ns#"
   xmlns:rdf="http://www.w3.org/1999/02/22-rdf-syntax-ns#"
   xmlns:svg="http://www.w3.org/2000/svg"
   xmlns="http://www.w3.org/2000/svg"
   xmlns:xlink="http://www.w3.org/1999/xlink"
   xmlns:sodipodi="http://sodipodi.sourceforge.net/DTD/sodipodi-0.dtd"
   xmlns:inkscape="http://www.inkscape.org/namespaces/inkscape"
   width="100mm"
   height="100mm"
   viewBox="0 0 100 100"
   version="1.1"
   id="svg33"
   inkscape:version="0.92.4 (5da689c313, 2019-01-14)"
   sodipodi:docname="hot_bread.svg">
  <defs
     id="defs27">
    <linearGradient
       inkscape:collect="always"
       id="linearGradient8653">
      <stop
         style="stop-color:#241f1c;stop-opacity:1;"
         offset="0"
         id="stop8649" />
      <stop
         style="stop-color:#241f1c;stop-opacity:0;"
         offset="1"
         id="stop8651" />
    </linearGradient>
    <linearGradient
       inkscape:collect="always"
       id="linearGradient4581">
      <stop
         style="stop-color:#0081ff;stop-opacity:1;"
         offset="0"
         id="stop4577" />
      <stop
         style="stop-color:#0081ff;stop-opacity:0;"
         offset="1"
         id="stop4579" />
    </linearGradient>
    <linearGradient
       inkscape:collect="always"
       id="linearGradient4571">
      <stop
         style="stop-color:#c87137;stop-opacity:1"
         offset="0"
         id="stop4567" />
      <stop
         style="stop-color:#803300;stop-opacity:1"
         offset="1"
         id="stop4569" />
    </linearGradient>
    <radialGradient
       inkscape:collect="always"
       xlink:href="#linearGradient4571"
       id="radialGradient4575"
       cx="41.402378"
       cy="258.99585"
       fx="41.402378"
       fy="258.99585"
       r="35.686638"
       gradientTransform="matrix(0.69891513,-0.16604441,0.08029822,0.33799175,-7.46488,188.29519)"
       gradientUnits="userSpaceOnUse" />
    <linearGradient
       inkscape:collect="always"
       xlink:href="#linearGradient4581"
       id="linearGradient4587"
       gradientUnits="userSpaceOnUse"
       x1="75.244911"
       y1="820.06366"
       x2="116.03693"
       y2="867.12915" />
    <linearGradient
       gradientTransform="matrix(-0.99069312,0,0,1,192.84153,120.01894)"
       inkscape:collect="always"
       xlink:href="#linearGradient4581"
       id="linearGradient4585-2"
       gradientUnits="userSpaceOnUse"
       x1="33.400707"
       y1="851.52734"
       x2="88.395576"
       y2="819.54358" />
    <radialGradient
       inkscape:collect="always"
       xlink:href="#linearGradient4571"
       id="radialGradient4575-3"
       cx="41.402378"
       cy="258.99585"
       fx="41.402378"
       fy="258.99585"
       r="35.686638"
       gradientTransform="matrix(0.69891512,-0.16604441,0.08029822,0.33799174,-7.4648799,185.12017)"
       gradientUnits="userSpaceOnUse" />
    <radialGradient
       inkscape:collect="always"
       xlink:href="#linearGradient8653"
       id="radialGradient8655"
       cx="52.916672"
       cy="92.790077"
       fx="52.916672"
       fy="92.790077"
       r="38.463909"
       gradientTransform="matrix(0.94668974,0,0,0.15413458,4.8715221,78.487918)"
       gradientUnits="userSpaceOnUse" />
  </defs>
  <sodipodi:namedview
     id="base"
     pagecolor="#ffffff"
     bordercolor="#666666"
     borderopacity="1.0"
     inkscape:pageopacity="0.0"
     inkscape:pageshadow="2"
     inkscape:zoom="2.8284271"
     inkscape:cx="169.40016"
     inkscape:cy="182.91662"
     inkscape:document-units="mm"
     inkscape:current-layer="layer3"
     showgrid="false"
     inkscape:window-width="2100"
     inkscape:window-height="1234"
     inkscape:window-x="2391"
     inkscape:window-y="34"
     inkscape:window-maximized="1" />
  <metadata
     id="metadata30">
    <rdf:RDF>
      <cc:Work
         rdf:about="">
        <dc:format>image/svg+xml</dc:format>
        <dc:type
           rdf:resource="http://purl.org/dc/dcmitype/StillImage" />
        <dc:title></dc:title>
      </cc:Work>
    </rdf:RDF>
  </metadata>
  <g
     inkscape:groupmode="layer"
     id="layer2"
     inkscape:label="skuggi">
    <ellipse
       style="opacity:0.63999999;fill:url(#radialGradient8655);fill-opacity:1;stroke-width:0.15306965"
       id="path4652-3"
       cx="54.967194"
       cy="92.790077"
       rx="36.413387"
       ry="5.9286184" />
  </g>
  <g
     inkscape:label="braud"
     inkscape:groupmode="layer"
     id="layer1"
     transform="translate(0,-197)">
    <ellipse
       style="opacity:0.63999999;fill:#ffcc00;fill-opacity:1;stroke-width:0.25746331"
       id="path4652"
       cx="49.827026"
       cy="272.88904"
       rx="34.892036"
       ry="17.504139" />
    <path
       id="path4548"
       d="m 74.099797,260.36714 c 1.798719,6.69125 -0.719489,12.663 -0.719489,12.663 -0.215848,-8.92165 -4.676678,-13.67028 -6.619299,-15.39705 -4.388879,-1.22313 -9.2814,-2.01457 -14.533671,-2.23042 3.88524,7.84243 0.503643,15.82875 0.503643,15.82875 -0.287796,-9.71309 -5.468112,-14.53367 -7.050987,-15.82875 -4.964473,0.2878 -9.64115,1.07924 -13.814184,2.30237 3.453546,7.62658 0.287795,15.3251 0.287795,15.3251 -0.215846,-6.83514 -2.806005,-11.22402 -4.892523,-13.67028 -8.130221,3.3816 -13.382489,8.48997 -13.382489,14.24588 0,10.07284 15.972649,18.27501 35.686638,18.27501 19.71399,0 35.68664,-8.20217 35.68664,-18.27501 -0.07195,-5.18032 -4.316934,-9.92895 -11.152074,-13.2386 z"
       class="st1"
       inkscape:connector-curvature="0"
       style="fill:url(#radialGradient4575-3);fill-opacity:1;stroke-width:0.71948868" />
    <path
       style="opacity:0.3;fill:#241f1c;fill-opacity:1;stroke:none;stroke-width:0.3265247px;stroke-linecap:butt;stroke-linejoin:miter;stroke-opacity:1"
       d="m 23.136738,286.02625 c 0,0 11.20132,6.3983 24.415363,6.011 13.214038,-0.38728 21.472814,-3.22743 24.982794,-4.90568 3.509978,-1.67828 8.178455,-3.50161 10.03668,-7.11632 3.776453,-5.73138 2.865764,-6.36859 -5.653814,0.29333 -8.188849,5.93434 -26.264372,5.90013 -31.735811,5.64194 -5.471438,-0.25819 -21.916701,-1.70927 -28.146692,-8.00495 -3.716448,-2.19467 -0.0926,3.94956 6.10148,8.08068 z"
       id="path8665"
       inkscape:connector-curvature="0"
       sodipodi:nodetypes="cccccscc" />
  </g>
  <g
     inkscape:groupmode="layer"
     id="layer3"
     inkscape:label="gufa1">
    <path
       style="fill:#00dcff;fill-opacity:1;stroke-width:0.71948868"
       inkscape:connector-curvature="0"
       class="st1"
       d="m 37.118076,19.046639 c 2.949904,3.2377 1.510926,7.33879 -0.287795,10.93623 -1.079233,2.15847 -2.734057,4.46083 -2.949904,7.12294 -0.287795,3.95719 4.244983,5.82786 6.259552,6.76319 0.935335,0.43169 -0.64754,3.309651 -1.510927,2.949899 -4.101085,-1.798719 -8.130221,-4.532769 -6.259551,-10.864269 1.29508,-4.38889 8.418017,-11.94352 4.388881,-16.26045 -0.575591,-0.79144 -0.359744,-1.43898 0.359744,-0.64754 z"
       id="path4552">
      <title
         id="title8657">gufa1</title>
    </path>
  </g>
  <g
     inkscape:groupmode="layer"
     id="layer4"
     inkscape:label="gufa2">
    <path
       style="fill:#00dcff;fill-opacity:1;stroke-width:0.71948868"
       inkscape:connector-curvature="0"
       class="st1"
       d="m 49.565232,14.87361 c 3.309648,4.46083 1.654824,10.21674 -0.287795,15.18121 -1.223131,3.0938 -3.021853,6.1876 -3.237699,10.00089 -0.359745,5.540059 4.676676,8.130221 6.97904,9.425301 1.079232,0.575588 -0.719489,4.67668 -1.654824,4.17304 -4.532779,-2.518211 -8.993608,-6.3315 -6.907091,-15.181211 1.438977,-6.11566 9.281404,-16.62019 4.892523,-22.6639 -0.863387,-1.07923 -0.575591,-2.01457 0.215846,-0.93533 z"
       id="path4554">
      <title
         id="title8659">gufa2</title>
    </path>
  </g>
  <g
     inkscape:groupmode="layer"
     id="layer5"
     inkscape:label="gufa3">
    <path
       style="fill:#00dcff;fill-opacity:1;stroke-width:0.71948868"
       inkscape:connector-curvature="0"
       class="st1"
       d="m 60.371562,20.61498 c 2.949904,3.2377 1.510926,7.33878 -0.287795,10.93622 -1.079233,2.15847 -2.734057,4.46083 -2.949904,7.12294 -0.287795,3.95719 4.244983,5.82786 6.259551,6.7632 0.935336,0.431691 -0.647539,3.309641 -1.510926,2.9499 -4.101085,-1.798719 -8.130222,-4.532779 -6.259551,-10.86428 1.295079,-4.38888 8.418017,-11.94351 4.388881,-16.26044 -0.64754,-0.71949 -0.359745,-1.43898 0.359744,-0.64754 z"
       id="path4550">
      <title
         id="title8661">gufa3</title>
    </path>
  </g>
</svg>
