<?xml version="1.0" encoding="UTF-8" standalone="no"?>
<!-- Created with Inkscape (http://www.inkscape.org/) -->

<svg
   xmlns:dc="http://purl.org/dc/elements/1.1/"
   xmlns:cc="http://creativecommons.org/ns#"
   xmlns:rdf="http://www.w3.org/1999/02/22-rdf-syntax-ns#"
   xmlns:svg="http://www.w3.org/2000/svg"
   xmlns="http://www.w3.org/2000/svg"
   xmlns:sodipodi="http://sodipodi.sourceforge.net/DTD/sodipodi-0.dtd"
   xmlns:inkscape="http://www.inkscape.org/namespaces/inkscape"
   width="25mm"
   height="25mm"
   viewBox="0 0 25 25"
   version="1.1"
   id="svg4790"
   inkscape:version="0.92.4 (5da689c313, 2019-01-14)"
   sodipodi:docname="desserts.svg">
  <defs
     id="defs4784" />
  <sodipodi:namedview
     id="base"
     pagecolor="#ffffff"
     bordercolor="#666666"
     borderopacity="1.0"
     inkscape:pageopacity="0.0"
     inkscape:pageshadow="2"
     inkscape:zoom="4.3016129"
     inkscape:cx="47.142857"
     inkscape:cy="40"
     inkscape:document-units="mm"
     inkscape:current-layer="layer1"
     showgrid="false"
     inkscape:window-width="1280"
     inkscape:window-height="961"
     inkscape:window-x="-8"
     inkscape:window-y="-8"
     inkscape:window-maximized="1" />
  <metadata
     id="metadata4787">
    <rdf:RDF>
      <cc:Work
         rdf:about="">
        <dc:format>image/svg+xml</dc:format>
        <dc:type
           rdf:resource="http://purl.org/dc/dcmitype/StillImage" />
        <dc:title></dc:title>
      </cc:Work>
    </rdf:RDF>
  </metadata>
  <g
     inkscape:label="Layer 1"
     inkscape:groupmode="layer"
     id="layer1"
     transform="translate(0,-272)">
    <g
       transform="matrix(0.26458333,0,0,0.26458333,-87.093515,52.244864)"
       id="g4650">
      <path
         inkscape:connector-curvature="0"
         class="st1"
         d="m 412.8,839.9 -3.4,-3.5 c -2.8,-2.9 -7.4,-2.9 -10.2,-0.2 l -15.9,16.3 c 1.4,1.2 2.6,2.6 3.6,4.2 1.1,-0.2 2.2,-0.3 3.3,-0.3 4.3,0 8.2,1.4 11.5,3.7 l 11,-10 c 2.9,-2.8 2.9,-7.3 0.1,-10.2 z"
         id="path4644" />
      <path
         inkscape:connector-curvature="0"
         class="st1"
         d="m 388.8,858.7 c -0.9,0 -1.9,0.1 -2.8,0.3 -2.9,-4.5 -7.9,-7.5 -13.7,-7.5 -5.8,0 -10.8,3 -13.7,7.5 -0.8,-0.1 -1.7,-0.2 -2.6,-0.2 -9,0 -16.3,7.3 -16.3,16.3 0,3.8 1.3,7.2 3.4,10 h 58.4 c 2.1,-2.8 3.4,-6.2 3.4,-10 0.2,-9.1 -7.1,-16.4 -16.1,-16.4 z"
         id="path4646" />
      <path
         inkscape:connector-curvature="0"
         class="st1"
         d="m 349.8,910.4 c 0.9,5.2 5.2,11.6 11.6,11.6 h 21.3 c 6.4,0 10.1,-6.4 11.6,-11.6 l 5.2,-21.3 h -54.2 z"
         id="path4648" />
    </g>
  </g>
</svg>
