<?xml version="1.0" encoding="UTF-8" standalone="no"?>
<svg
   xmlns:dc="http://purl.org/dc/elements/1.1/"
   xmlns:cc="http://creativecommons.org/ns#"
   xmlns:rdf="http://www.w3.org/1999/02/22-rdf-syntax-ns#"
   xmlns:svg="http://www.w3.org/2000/svg"
   xmlns="http://www.w3.org/2000/svg"
   xmlns:xlink="http://www.w3.org/1999/xlink"
   id="svg33"
   version="1.1"
   viewBox="0 0 100 100"
   height="100mm"
   width="100mm">
   <style type="text/css">
      .gufa {
         animation-name: gufan;
         animation-duration: 5s;
         animation-iteration-count: infinite;
         animation-direction: alternate;
         top: 0;
      }

      @keyframes gufan {
         0%   {fill: #FFAD1F; fill-opacity:0.8;}
         50% {fill: #FFE651; fill-opacity:0.3;}
         100% {fill: #FFAD1F; fill-opacity:0.7;}
      }
      .gufar {
         animation-name: guff;
         animation-duration: 3s;
         animation-iteration-count: infinite;
         animation-direction: alternate;
         top: 0;
      }

      @keyframes guff {
         0%   {fill: #FFE651; fill-opacity:0.2;}
         50% {fill: #FFAD1F; fill-opacity:0.7;}
         100% {fill: #FFE651; fill-opacity:0.3;}
      }
   </style>
  <defs
     id="defs27">
    <linearGradient
       id="linearGradient8653">
      <stop
         id="stop8649"
         offset="0"
         style="stop-color:#241f1c;stop-opacity:1;" />
      <stop
         id="stop8651"
         offset="1"
         style="stop-color:#241f1c;stop-opacity:0;" />
    </linearGradient>
    <linearGradient
       id="linearGradient4581">
      <stop
         id="stop4577"
         offset="0"
         style="stop-color:#0081ff;stop-opacity:1;" />
      <stop
         id="stop4579"
         offset="1"
         style="stop-color:#0081ff;stop-opacity:0;" />
    </linearGradient>
    <linearGradient
       id="linearGradient4571">
      <stop
         id="stop4567"
         offset="0"
         style="stop-color:#c87137;stop-opacity:1" />
      <stop
         id="stop4569"
         offset="1"
         style="stop-color:#803300;stop-opacity:1" />
    </linearGradient>
    <radialGradient
       gradientUnits="userSpaceOnUse"
       gradientTransform="matrix(0.69891513,-0.16604441,0.08029822,0.33799175,-7.46488,188.29519)"
       r="35.686638"
       fy="258.99585"
       fx="41.402378"
       cy="258.99585"
       cx="41.402378"
       id="radialGradient4575"
       xlink:href="#linearGradient4571" />
    <linearGradient
       y2="867.12915"
       x2="116.03693"
       y1="820.06366"
       x1="75.244911"
       gradientUnits="userSpaceOnUse"
       id="linearGradient4587"
       xlink:href="#linearGradient4581" />
    <linearGradient
       y2="819.54358"
       x2="88.395576"
       y1="851.52734"
       x1="33.400707"
       gradientUnits="userSpaceOnUse"
       id="linearGradient4585-2"
       xlink:href="#linearGradient4581"
       gradientTransform="matrix(-0.99069312,0,0,1,192.84153,120.01894)" />
    <radialGradient
       gradientUnits="userSpaceOnUse"
       gradientTransform="matrix(0.69891512,-0.16604441,0.08029822,0.33799174,-7.4648799,185.12017)"
       r="35.686638"
       fy="258.99585"
       fx="41.402378"
       cy="258.99585"
       cx="41.402378"
       id="radialGradient4575-3"
       xlink:href="#linearGradient4571" />
    <radialGradient
       gradientUnits="userSpaceOnUse"
       gradientTransform="matrix(0.94668974,0,0,0.15413458,4.8715221,78.487918)"
       r="38.463909"
       fy="92.790077"
       fx="52.916672"
       cy="92.790077"
       cx="52.916672"
       id="radialGradient8655"
       xlink:href="#linearGradient8653" />
  </defs>
  <metadata
     id="metadata30">
    <rdf:RDF>
      <cc:Work
         rdf:about="">
        <dc:format>image/svg+xml</dc:format>
        <dc:type
           rdf:resource="http://purl.org/dc/dcmitype/StillImage" />
        <dc:title></dc:title>
      </cc:Work>
    </rdf:RDF>
  </metadata>
  <!--teikningar-->
  <g
     id="layer2">
    <ellipse
       ry="5.9286184"
       rx="36.413387"
       cy="92.790077"
       cx="54.967194"
       id="path4652-3"
       style="opacity:0.63999999;fill:url(#radialGradient8655);fill-opacity:1;stroke-width:0.15306965" />
  </g>
  <g
     transform="translate(0,-197)"
     id="layer1">
    <ellipse
       ry="17.504139"
       rx="34.892036"
       cy="272.88904"
       cx="49.827026"
       id="path4652"
       style="opacity:0.63999999;fill:#ffcc00;fill-opacity:1;stroke-width:0.25746331" />
    <path
       style="fill:url(#radialGradient4575-3);fill-opacity:1;stroke-width:0.71948868"
       class="st1"
       d="m 74.099797,260.36714 c 1.798719,6.69125 -0.719489,12.663 -0.719489,12.663 -0.215848,-8.92165 -4.676678,-13.67028 -6.619299,-15.39705 -4.388879,-1.22313 -9.2814,-2.01457 -14.533671,-2.23042 3.88524,7.84243 0.503643,15.82875 0.503643,15.82875 -0.287796,-9.71309 -5.468112,-14.53367 -7.050987,-15.82875 -4.964473,0.2878 -9.64115,1.07924 -13.814184,2.30237 3.453546,7.62658 0.287795,15.3251 0.287795,15.3251 -0.215846,-6.83514 -2.806005,-11.22402 -4.892523,-13.67028 -8.130221,3.3816 -13.382489,8.48997 -13.382489,14.24588 0,10.07284 15.972649,18.27501 35.686638,18.27501 19.71399,0 35.68664,-8.20217 35.68664,-18.27501 -0.07195,-5.18032 -4.316934,-9.92895 -11.152074,-13.2386 z"
       id="path4548" />
    <path
       id="path8665"
       d="m 23.136738,286.02625 c 0,0 11.20132,6.3983 24.415363,6.011 13.214038,-0.38728 21.472814,-3.22743 24.982794,-4.90568 3.509978,-1.67828 8.178455,-3.50161 10.03668,-7.11632 3.776453,-5.73138 2.865764,-6.36859 -5.653814,0.29333 -8.188849,5.93434 -26.264372,5.90013 -31.735811,5.64194 -5.471438,-0.25819 -21.916701,-1.70927 -28.146692,-8.00495 -3.716448,-2.19467 -0.0926,3.94956 6.10148,8.08068 z"
       style="opacity:0.3;fill:#241f1c;fill-opacity:1;stroke:none;stroke-width:0.3265247px;stroke-linecap:butt;stroke-linejoin:miter;stroke-opacity:1" />
  </g>
  <g 
     id="layer3">
    <path
       id="path4552"
       d="m 37.118076,19.046639 c 2.949904,3.2377 1.510926,7.33879 -0.287795,10.93623 -1.079233,2.15847 -2.734057,4.46083 -2.949904,7.12294 -0.287795,3.95719 4.244983,5.82786 6.259552,6.76319 0.935335,0.43169 -0.64754,3.309651 -1.510927,2.949899 -4.101085,-1.798719 -8.130221,-4.532769 -6.259551,-10.864269 1.29508,-4.38889 8.418017,-11.94352 4.388881,-16.26045 -0.575591,-0.79144 -0.359744,-1.43898 0.359744,-0.64754 z"
       class="st1 gufa anima">
      <title
         id="title8657">gufa1</title>
    </path>
  </g>
  <g
     id="layer4">
    <path
       id="path4554"
       d="m 49.565232,14.87361 c 3.309648,4.46083 1.654824,10.21674 -0.287795,15.18121 -1.223131,3.0938 -3.021853,6.1876 -3.237699,10.00089 -0.359745,5.540059 4.676676,8.130221 6.97904,9.425301 1.079232,0.575588 -0.719489,4.67668 -1.654824,4.17304 -4.532779,-2.518211 -8.993608,-6.3315 -6.907091,-15.181211 1.438977,-6.11566 9.281404,-16.62019 4.892523,-22.6639 -0.863387,-1.07923 -0.575591,-2.01457 0.215846,-0.93533 z"
       class="st1 gufar">
      <title
         id="title8659">gufa2</title>
    </path>
  </g>
  <g
     id="layer5">
    <path
       id="path4550"
       d="m 60.371562,20.61498 c 2.949904,3.2377 1.510926,7.33878 -0.287795,10.93622 -1.079233,2.15847 -2.734057,4.46083 -2.949904,7.12294 -0.287795,3.95719 4.244983,5.82786 6.259551,6.7632 0.935336,0.431691 -0.647539,3.309641 -1.510926,2.9499 -4.101085,-1.798719 -8.130222,-4.532779 -6.259551,-10.86428 1.295079,-4.38888 8.418017,-11.94351 4.388881,-16.26044 -0.64754,-0.71949 -0.359745,-1.43898 0.359744,-0.64754 z"
       class="st1 gufa">
      <title
         id="title8661">gufa3</title>
    </path>
  </g>

  Sorry, your browser does not support inline SVG. 
</svg>