<?xml version="1.0" encoding="UTF-8" standalone="no"?>
<svg
   xmlns:dc="http://purl.org/dc/elements/1.1/"
   xmlns:cc="http://creativecommons.org/ns#"
   xmlns:rdf="http://www.w3.org/1999/02/22-rdf-syntax-ns#"
   xmlns:svg="http://www.w3.org/2000/svg"
   xmlns="http://www.w3.org/2000/svg"
   xmlns:xlink="http://www.w3.org/1999/xlink"
   xmlns:sodipodi="http://sodipodi.sourceforge.net/DTD/sodipodi-0.dtd"
   xmlns:inkscape="http://www.inkscape.org/namespaces/inkscape"
   sodipodi:docname="halloheimur.svg"
   inkscape:version="0.92.4 (5da689c313, 2019-01-14)"
   id="svg8"
   version="1.1"
   viewBox="0 0 80 30"
   height="70mm"
   width="80mm">
  <defs
     id="defs2">
    <linearGradient
       id="linearGradient86"
       inkscape:collect="always">
      <stop
         id="stop82"
         offset="0"
         style="stop-color:#00ffff;stop-opacity:1" />
      <stop
         id="stop84"
         offset="1"
         style="stop-color:#000080;stop-opacity:1" />
    </linearGradient>
    <rect
       id="rect12"
       height="26.197594"
       width="58.378029"
       y="11.965683"
       x="27.285383" />
    <radialGradient
       gradientTransform="matrix(-0.00594567,-0.98539488,0.99859661,-0.00602546,-5.1074375,54.830044)"
       gradientUnits="userSpaceOnUse"
       r="4.4892592"
       fy="38.051819"
       fx="46.602787"
       cy="38.051819"
       cx="46.602787"
       id="radialGradient88"
       xlink:href="#linearGradient86"
       inkscape:collect="always" />
  </defs>
  <sodipodi:namedview
     inkscape:window-maximized="1"
     inkscape:window-y="-9"
     inkscape:window-x="2391"
     inkscape:window-height="1271"
     inkscape:window-width="2400"
     showgrid="false"
     inkscape:document-rotation="0"
     inkscape:current-layer="layer1"
     inkscape:document-units="mm"
     inkscape:cy="64.128598"
     inkscape:cx="208.15685"
     inkscape:zoom="9.1556384"
     inkscape:pageshadow="2"
     inkscape:pageopacity="0.0"
     borderopacity="1.0"
     bordercolor="#666666"
     pagecolor="#ffffff"
     id="base" />
  <metadata
     id="metadata5">
    <rdf:RDF>
      <cc:Work
         rdf:about="">
        <dc:format>image/svg+xml</dc:format>
        <dc:type
           rdf:resource="http://purl.org/dc/dcmitype/StillImage" />
        <dc:title />
      </cc:Work>
    </rdf:RDF>
  </metadata>
  <g
     id="layer1"
     inkscape:groupmode="layer"
     inkscape:label="Lag 1">
    <g
       style="fill:#ffffff;fill-opacity:0.78431373;stroke:#9400ff;stroke-opacity:1"
       transform="matrix(0.48673309,0,0,0.47605201,30.989131,-2.5750278)"
       id="g95">
      <path
         id="path22"
         style="font-style:normal;font-variant:normal;font-weight:normal;font-stretch:normal;font-size:25.39999962px;line-height:1.25;font-family:'Bauhaus 93';-inkscape-font-specification:'Bauhaus 93, ';text-align:center;text-anchor:middle;fill:#ffffff;fill-opacity:0.78431373;stroke:#9400ff;stroke-width:0.33412901;stroke-opacity:1"
         d="m 24.974715,21.221606 v 5.406601 h -1.845726 v 7.764476 H 16.497443 V 13.892657 h 6.631546 v 7.328949 z m 7.758582,-7.328949 V 34.392683 H 26.101751 V 13.892657 Z"
         inkscape:connector-curvature="0" />
      <path
         id="path24"
         style="font-style:normal;font-variant:normal;font-weight:normal;font-stretch:normal;font-size:25.39999962px;line-height:1.25;font-family:'Bauhaus 93';-inkscape-font-specification:'Bauhaus 93, ';text-align:center;text-anchor:middle;fill:#ffffff;fill-opacity:0.78431373;stroke:#9400ff;stroke-width:0.33412901;stroke-opacity:1"
         d="m 45.800381,28.775827 v 5.812095 q -0.751356,0.120148 -1.372044,0.120148 -3.675116,0 -6.125196,-2.222712 -2.450079,-2.222713 -2.450079,-5.571802 0,-3.258978 2.466413,-5.526745 2.482747,-2.267769 6.027193,-2.267769 3.952793,0 6.2232,2.132604 2.286739,2.117584 2.286739,5.797075 v 7.343964 h -6.108861 v -6.938469 q 0,-1.186448 -0.637021,-1.892309 -0.620687,-0.705862 -1.682388,-0.705862 -0.963696,0 -1.666052,0.645789 -0.702356,0.645788 -0.702356,1.53187 0,0.931135 0.63702,1.53187 0.637021,0.600732 1.617051,0.600732 0.800359,0 1.486381,-0.390476 z"
         inkscape:connector-curvature="0" />
      <path
         id="path26"
         style="font-style:normal;font-variant:normal;font-weight:normal;font-stretch:normal;font-size:25.39999962px;line-height:1.25;font-family:'Bauhaus 93';-inkscape-font-specification:'Bauhaus 93, ';text-align:center;text-anchor:middle;fill:#ffffff;fill-opacity:0.78431373;stroke:#9400ff;stroke-width:0.33412901;stroke-opacity:1"
         d="M 62.52625,13.892657 V 34.392683 H 56.417386 V 13.892657 Z"
         inkscape:connector-curvature="0" />
      <path
         id="path28"
         style="font-style:normal;font-variant:normal;font-weight:normal;font-stretch:normal;font-size:25.39999962px;line-height:1.25;font-family:'Bauhaus 93';-inkscape-font-specification:'Bauhaus 93, ';text-align:center;text-anchor:middle;fill:#ffffff;fill-opacity:0.78431373;stroke:#9400ff;stroke-width:0.33412901;stroke-opacity:1"
         d="M 72.195894,13.892657 V 34.392683 H 66.087033 V 13.892657 Z"
         inkscape:connector-curvature="0" />
      <path
         id="path30"
         style="font-style:normal;font-variant:normal;font-weight:normal;font-stretch:normal;font-size:25.39999962px;line-height:1.25;font-family:'Bauhaus 93';-inkscape-font-specification:'Bauhaus 93, ';text-align:center;text-anchor:middle;fill:#ffffff;fill-opacity:0.78431373;stroke:#9400ff;stroke-width:0.33412901;stroke-opacity:1"
         d="m 83.482587,19.104021 q 3.462777,0 5.929191,2.297805 2.482745,2.282787 2.482745,5.481691 0,3.24396 -2.515414,5.526747 -2.49908,2.282786 -6.043527,2.282786 -3.544446,0 -6.05986,-2.282786 -2.515414,-2.297805 -2.515414,-5.526747 0,-3.289014 2.515414,-5.526746 2.515414,-2.25275 6.206865,-2.25275 z m -0.163338,5.541764 q -0.980033,0 -1.666053,0.660808 -0.686024,0.645788 -0.686024,1.591943 0,0.931136 0.686024,1.591943 0.702355,0.660806 1.666053,0.660806 0.980032,0 1.666053,-0.660806 0.702355,-0.660807 0.702355,-1.591943 0,-0.946155 -0.686021,-1.591943 -0.686022,-0.660808 -1.682387,-0.660808 z M 84.21761,14.433318 h 3.871125 l -3.871125,3.484256 h -3.446443 z"
         inkscape:connector-curvature="0" />
    </g>
    <path
       d="m 7.1652091,10.793577 v 5.171777 q 1.178223,-0.855761 2.356446,-0.855761 1.7859369,0 2.8277339,1.289844 1.054199,1.289843 1.054199,3.485058 v 7.838281 H 8.7651121 v -6.536035 q 0,-0.79375 -0.173633,-1.066601 -0.161231,-0.272852 -0.644922,-0.272852 -0.781348,0 -0.781348,1.153418 v 6.72207 H 2.5267333 V 10.793577 Z"
       style="font-style:normal;font-variant:normal;font-weight:normal;font-stretch:normal;font-size:25.4px;line-height:1.25;font-family:'Bauhaus 93';-inkscape-font-specification:'Bauhaus 93, ';text-align:center;text-anchor:middle;fill:#ffffff;fill-opacity:0.78431374;stroke:#9400ff;stroke-width:0.264583;stroke-opacity:1"
       id="path32" />
    <path
       d="M 28.273998,22.29055 H 21.24187 q -0.161231,-0.533301 -0.161231,-0.979785 0,-0.620118 0.223242,-1.21543 h 2.356446 q -0.248047,-1.37666 -1.550293,-1.37666 -0.868164,0 -1.413867,0.74414 -0.545704,0.731739 -0.545704,1.885157 0,1.203027 0.520899,1.947168 0.533301,0.74414 1.389062,0.74414 0.694532,0 1.339453,-0.694531 l 2.6417,3.175 q -1.84795,1.451074 -4.105176,1.451074 -2.75332,0 -4.626074,-1.847949 -1.872754,-1.847949 -1.872754,-4.576465 0,-2.716113 1.885156,-4.588867 1.897559,-1.872754 4.650879,-1.872754 2.691308,0 4.514453,1.835547 1.835547,1.823144 1.835547,4.502051 0,0.272851 -0.04961,0.868164 z"
       style="font-style:normal;font-variant:normal;font-weight:normal;font-stretch:normal;font-size:25.4px;line-height:1.25;font-family:'Bauhaus 93';-inkscape-font-specification:'Bauhaus 93, ';text-align:center;text-anchor:middle;fill:#ffffff;fill-opacity:0.78431374;stroke:#9400ff;stroke-width:0.264583;stroke-opacity:1"
       id="path34" />
    <path
       sodipodi:nodetypes="ccccc"
       d="M 34.847241,15.35764 V 27.722776 H 30.208764 V 15.35764 Z"
       style="font-style:normal;font-variant:normal;font-weight:normal;font-stretch:normal;font-size:25.4px;line-height:1.25;font-family:'Bauhaus 93';-inkscape-font-specification:'Bauhaus 93, ';text-align:center;text-anchor:middle;fill:#ffffff;fill-opacity:0.78431374;stroke:#9400ff;stroke-width:0.264583;stroke-opacity:1"
       id="path36" />
    <path
       d="m 54.566968,27.722776 h -4.638476 v -6.672461 q 0,-0.768945 -0.161231,-1.066601 -0.16123,-0.297656 -0.58291,-0.297656 -0.781347,0 -0.781347,1.37666 v 6.660058 h -4.638477 v -6.672461 q 0,-0.768945 -0.173633,-1.066601 -0.16123,-0.297656 -0.58291,-0.297656 -0.768945,0 -0.768945,1.37666 v 6.660058 h -4.638477 v -7.615039 q 0,-2.083593 1.401465,-3.534668 1.401465,-1.463476 3.398242,-1.463476 2.058789,0 3.695899,1.736328 1.823144,-1.736328 3.646289,-1.736328 2.319238,0 3.720703,1.686718 1.103808,1.314649 1.103808,3.832325 z"
       style="font-style:normal;font-variant:normal;font-weight:normal;font-stretch:normal;font-size:25.4px;line-height:1.25;font-family:'Bauhaus 93';-inkscape-font-specification:'Bauhaus 93, ';text-align:center;text-anchor:middle;fill:#ffffff;fill-opacity:0.78431374;stroke:#9400ff;stroke-width:0.264583;stroke-opacity:1"
       id="path38" />
    <path
       d="m 57.295482,15.531272 h 4.638477 v 6.98252 q 0,1.054199 0.880566,1.054199 0.868164,0 0.868164,-1.054199 v -6.98252 h 4.638476 v 6.895703 q 0,2.406055 -1.599902,4.067969 -1.599902,1.649512 -3.91914,1.649512 -2.6417,0 -4.254004,-1.922363 -1.252637,-1.500684 -1.252637,-4.167188 z"
       style="font-style:normal;font-variant:normal;font-weight:normal;font-stretch:normal;font-size:25.4px;line-height:1.25;font-family:'Bauhaus 93';-inkscape-font-specification:'Bauhaus 93, ';text-align:center;text-anchor:middle;fill:#ffffff;fill-opacity:0.78431374;stroke:#9400ff;stroke-width:0.264583;stroke-opacity:1"
       id="path40" />
    <path
       d="m 77.821359,15.233616 v 4.960938 q -0.483692,-0.272852 -0.880567,-0.272852 -1.265039,0 -1.265039,1.934766 v 5.866308 h -4.638476 v -6.759277 q 0,-2.678906 1.463476,-4.266406 1.463477,-1.599903 3.906738,-1.599903 0.545703,0 1.413868,0.136426 z"
       style="font-style:normal;font-variant:normal;font-weight:normal;font-stretch:normal;font-size:25.4px;line-height:1.25;font-family:'Bauhaus 93';-inkscape-font-specification:'Bauhaus 93, ';text-align:center;text-anchor:middle;fill:#ffffff;fill-opacity:0.78431374;stroke:#9400ff;stroke-width:0.264583;stroke-opacity:1"
       id="path42" />
    <circle 
       r="4.4892592"
       cy="8.7142534"
       cx="32.649525"
       id="kulan"
       style="opacity:1;fill:url(#radialGradient88);fill-opacity:1;stroke-width:0.26458299" />
  </g>
<!-- ath! id="kulan" / translate x, y -->
   <style>
      #kulan {
         animation-name: worldMoves;
         animation-duration: 20s;
         animation-iteration-count: infinite;
      }
      @keyframes worldMoves {
         0%   { transform: translate(0, -200px); }
         10%  { transform: translate(0, -200px); }
         20%  { transform: translate(0, 0); }
         90%  { transform: translate(0, 0); }
         100%   { transform: translate(0, -200px); }
      }
   </style>
</svg>