<?xml version="1.0" encoding="UTF-8" standalone="no"?>
<!-- Created with Inkscape (http://www.inkscape.org/) -->

<svg
   width="256"
   height="256"
   viewBox="0 0 135.46667 135.46667"
   version="1.1"
   id="svg1"
   inkscape:version="1.3.2 (091e20e, 2023-11-25, custom)"
   sodipodi:docname="Nlogo.svg"
   xmlns:inkscape="http://www.inkscape.org/namespaces/inkscape"
   xmlns:sodipodi="http://sodipodi.sourceforge.net/DTD/sodipodi-0.dtd"
   xmlns="http://www.w3.org/2000/svg"
   xmlns:svg="http://www.w3.org/2000/svg">
  <sodipodi:namedview
     id="namedview1"
     pagecolor="#ffffff"
     bordercolor="#000000"
     borderopacity="0.25"
     inkscape:showpageshadow="2"
     inkscape:pageopacity="0.0"
     inkscape:pagecheckerboard="0"
     inkscape:deskcolor="#d1d1d1"
     inkscape:document-units="mm"
     showguides="true"
     inkscape:zoom="1.0343421"
     inkscape:cx="331.61177"
     inkscape:cy="226.71417"
     inkscape:window-width="1920"
     inkscape:window-height="1017"
     inkscape:window-x="-8"
     inkscape:window-y="-8"
     inkscape:window-maximized="1"
     inkscape:current-layer="layer1">
    <sodipodi:guide
       position="67.828869,137.63719"
       orientation="1,0"
       id="guide1"
       inkscape:locked="false" />
    <sodipodi:guide
       position="162.06578,67.818678"
       orientation="0,-1"
       id="guide2"
       inkscape:locked="false" />
  </sodipodi:namedview>
  <defs
     id="defs1" />
  <g
     inkscape:label="Lag 1"
     inkscape:groupmode="layer"
     id="layer1">
    <path
       style="color:#000000;fill:#000000;-inkscape-stroke:none"
       d="m 67.738281,-0.109375 c -37.184474,6.893e-5 -67.41008757,30.36285 -67.410156,67.667969 6.666e-5,37.305116 30.225681,67.665946 67.410156,67.666016 37.184479,-7e-5 67.410089,-30.3609 67.410159,-67.666016 -7e-5,-37.30512 -30.22568,-67.66790173 -67.410159,-67.667969 z m 0,9.3789063 C 99.83365,9.2695893 125.77143,35.301323 125.77148,67.558594 125.77143,99.815866 99.833652,125.84565 67.738281,125.8457 35.642912,125.84564 9.7070889,99.815865 9.7070313,67.558594 9.7070904,35.301324 35.642913,9.2695907 67.738281,9.2695313 Z"
       id="path5" />
    <path
       d="M 36.11628,24.287349 H 55.889588 L 80.76777,74.043713 80.056965,64.738627 V 24.287349 H 99.636418 V 110.55325 H 79.540016 L 55.178783,61.572313 55.695732,72.29901 v 38.25424 H 36.11628 Z"
       id="text4"
       style="-inkscape-font-specification:'Tw Cen MT Condensed Extra Bold, Normal';stroke-width:0.248136"
       transform="scale(0.99796705,1.0020371)"
       aria-label="N" />
  </g>
</svg>
